<svg width="32" height="32" viewBox="0 0 32 32" fill="none" xmlns="http://www.w3.org/2000/svg">
<g clip-path="url(#clip0_2_133)">
<path fill-rule="evenodd" clip-rule="evenodd" d="M16 11.8055C13.6833 11.8055 11.8056 13.6833 11.8056 16C11.8056 18.3166 13.6833 20.1944 16 20.1944C18.3167 20.1944 20.1944 18.3166 20.1944 16C20.1944 13.6833 18.3167 11.8055 16 11.8055ZM-0.777786 16C-0.777786 6.73368 6.73372 -0.777832 16 -0.777832C25.2663 -0.777832 32.7778 6.73368 32.7778 16C32.7778 25.2662 25.2663 32.7777 16 32.7777C6.73372 32.7777 -0.777786 25.2662 -0.777786 16Z" fill="black"/>
<path fill-rule="evenodd" clip-rule="evenodd" d="M15.276 6.35703C18.2851 4.61938 22.1331 5.6501 23.8708 8.65921L29.8898 19.0824C31.6274 22.0915 30.5967 25.9395 27.5876 27.6772C24.5785 29.4148 20.7305 28.3841 18.9928 25.375L12.9738 14.9518C11.2362 11.9427 12.2669 8.09468 15.276 6.35703Z" fill="black"/>
<path fill-rule="evenodd" clip-rule="evenodd" d="M7.28604 11.8055C7.28604 8.33071 10.1029 5.51384 13.5777 5.51384H25.6158C29.0906 5.51384 31.9074 8.33071 31.9074 11.8055C31.9074 15.2803 29.0906 18.0972 25.6158 18.0972H13.5777C10.1029 18.0972 7.28604 15.2803 7.28604 11.8055Z" fill="black"/>
<path fill-rule="evenodd" clip-rule="evenodd" d="M20.3207 0.128279C23.3299 1.86593 24.3606 5.71395 22.6229 8.72306L16.6039 19.1463C14.8662 22.1554 11.0182 23.1861 8.00911 21.4484C5 19.7108 3.96928 15.8628 5.70694 12.8537L11.726 2.43045C13.4636 -0.578656 17.3116 -1.60938 20.3207 0.128279Z" fill="black"/>
<path fill-rule="evenodd" clip-rule="evenodd" d="M4.41237 4.32273C7.42148 2.58507 11.2695 3.61579 13.0072 6.6249L19.0262 17.0481C20.7638 20.0572 19.7331 23.9052 16.724 25.6429C13.7149 27.3805 9.86689 26.3498 8.12924 23.3407L2.1102 12.9175C0.372547 9.9084 1.40326 6.06039 4.41237 4.32273Z" fill="black"/>
<path fill-rule="evenodd" clip-rule="evenodd" d="M0.0925617 20.1944C0.0925617 16.7196 2.90944 13.9027 6.38423 13.9027H18.4223C21.8971 13.9027 24.714 16.7196 24.714 20.1944C24.714 23.6692 21.8971 26.4861 18.4223 26.4861H6.38423C2.90944 26.4861 0.0925617 23.6692 0.0925617 20.1944Z" fill="black"/>
<path fill-rule="evenodd" clip-rule="evenodd" d="M23.9909 10.5515C27 12.2891 28.0307 16.1371 26.2931 19.1463L20.274 29.5695C18.5364 32.5786 14.6884 33.6093 11.6793 31.8716C8.67014 30.134 7.63942 26.286 9.37708 23.2769L15.3961 12.8537C17.1338 9.84454 20.9818 8.81382 23.9909 10.5515Z" fill="black"/>
</g>
<defs>
<clipPath id="clip0_2_133">
<rect width="32" height="32" fill="white"/>
</clipPath>
</defs>
</svg>
